<mxfile host="app.diagrams.net" agent="Mozilla/5.0 (Windows NT 10.0; Win64; x64) AppleWebKit/537.36 (KHTML, like Gecko) Chrome/134.0.0.0 Safari/537.36 OPR/119.0.0.0 (Edition std-2)" version="28.0.0">
  <diagram name="PÃ¡gina-1" id="35lwJvpWsgEQnc_GjVhK">
    <mxGraphModel dx="2143" dy="853" grid="1" gridSize="10" guides="1" tooltips="1" connect="1" arrows="1" fold="1" page="1" pageScale="1" pageWidth="1600" pageHeight="1200" math="0" shadow="0">
      <root>
        <mxCell id="0" />
        <mxCell id="1" parent="0" />
        <mxCell id="W_Jf8CCHMTs3gdS7PjMw-13" style="edgeStyle=entityRelationEdgeStyle;rounded=0;orthogonalLoop=1;jettySize=auto;html=1;exitX=1;exitY=0.3333333333333333;exitDx=0;exitDy=0;exitPerimeter=0;entryX=0;entryY=0.5;entryDx=0;entryDy=0;" parent="1" source="W_Jf8CCHMTs3gdS7PjMw-1" target="W_Jf8CCHMTs3gdS7PjMw-12" edge="1">
          <mxGeometry relative="1" as="geometry" />
        </mxCell>
        <mxCell id="W_Jf8CCHMTs3gdS7PjMw-37" style="edgeStyle=entityRelationEdgeStyle;rounded=0;orthogonalLoop=1;jettySize=auto;html=1;exitX=1;exitY=0.3333333333333333;exitDx=0;exitDy=0;exitPerimeter=0;entryX=0;entryY=0.5;entryDx=0;entryDy=0;" parent="1" source="W_Jf8CCHMTs3gdS7PjMw-1" target="W_Jf8CCHMTs3gdS7PjMw-7" edge="1">
          <mxGeometry relative="1" as="geometry" />
        </mxCell>
        <mxCell id="W_Jf8CCHMTs3gdS7PjMw-38" style="edgeStyle=entityRelationEdgeStyle;rounded=0;orthogonalLoop=1;jettySize=auto;html=1;exitX=1;exitY=0.3333333333333333;exitDx=0;exitDy=0;exitPerimeter=0;entryX=0;entryY=0.5;entryDx=0;entryDy=0;" parent="1" source="W_Jf8CCHMTs3gdS7PjMw-1" target="W_Jf8CCHMTs3gdS7PjMw-11" edge="1">
          <mxGeometry relative="1" as="geometry" />
        </mxCell>
        <mxCell id="W_Jf8CCHMTs3gdS7PjMw-39" style="edgeStyle=entityRelationEdgeStyle;rounded=0;orthogonalLoop=1;jettySize=auto;html=1;exitX=1;exitY=0.3333333333333333;exitDx=0;exitDy=0;exitPerimeter=0;entryX=0;entryY=0.5;entryDx=0;entryDy=0;" parent="1" source="W_Jf8CCHMTs3gdS7PjMw-1" target="W_Jf8CCHMTs3gdS7PjMw-10" edge="1">
          <mxGeometry relative="1" as="geometry" />
        </mxCell>
        <mxCell id="W_Jf8CCHMTs3gdS7PjMw-1" value="Cliente" style="shape=umlActor;verticalLabelPosition=bottom;verticalAlign=top;html=1;" parent="1" vertex="1">
          <mxGeometry x="150" y="235" width="30" height="60" as="geometry" />
        </mxCell>
        <mxCell id="W_Jf8CCHMTs3gdS7PjMw-7" value="Realiza compras" style="ellipse;whiteSpace=wrap;html=1;" parent="1" vertex="1">
          <mxGeometry x="310" y="210" width="110" height="50" as="geometry" />
        </mxCell>
        <mxCell id="W_Jf8CCHMTs3gdS7PjMw-10" value="Buscar llantas" style="ellipse;whiteSpace=wrap;html=1;" parent="1" vertex="1">
          <mxGeometry x="590" y="330" width="110" height="50" as="geometry" />
        </mxCell>
        <mxCell id="W_Jf8CCHMTs3gdS7PjMw-11" value="Ver detalles de llanta" style="ellipse;whiteSpace=wrap;html=1;" parent="1" vertex="1">
          <mxGeometry x="590" y="270" width="110" height="50" as="geometry" />
        </mxCell>
        <mxCell id="W_Jf8CCHMTs3gdS7PjMw-12" value="Ver historial de compra" style="ellipse;whiteSpace=wrap;html=1;" parent="1" vertex="1">
          <mxGeometry x="310" y="140" width="110" height="50" as="geometry" />
        </mxCell>
        <mxCell id="W_Jf8CCHMTs3gdS7PjMw-43" style="edgeStyle=entityRelationEdgeStyle;rounded=0;orthogonalLoop=1;jettySize=auto;html=1;exitX=1;exitY=0.3333333333333333;exitDx=0;exitDy=0;exitPerimeter=0;entryX=0;entryY=0.5;entryDx=0;entryDy=0;" parent="1" source="W_Jf8CCHMTs3gdS7PjMw-14" target="W_Jf8CCHMTs3gdS7PjMw-16" edge="1">
          <mxGeometry relative="1" as="geometry" />
        </mxCell>
        <mxCell id="W_Jf8CCHMTs3gdS7PjMw-45" style="edgeStyle=entityRelationEdgeStyle;rounded=0;orthogonalLoop=1;jettySize=auto;html=1;exitX=1;exitY=0.3333333333333333;exitDx=0;exitDy=0;exitPerimeter=0;entryX=0;entryY=0.5;entryDx=0;entryDy=0;" parent="1" source="W_Jf8CCHMTs3gdS7PjMw-14" target="W_Jf8CCHMTs3gdS7PjMw-10" edge="1">
          <mxGeometry relative="1" as="geometry" />
        </mxCell>
        <mxCell id="W_Jf8CCHMTs3gdS7PjMw-46" style="edgeStyle=entityRelationEdgeStyle;rounded=0;orthogonalLoop=1;jettySize=auto;html=1;exitX=1;exitY=0.3333333333333333;exitDx=0;exitDy=0;exitPerimeter=0;entryX=0;entryY=0.5;entryDx=0;entryDy=0;" parent="1" source="W_Jf8CCHMTs3gdS7PjMw-14" target="W_Jf8CCHMTs3gdS7PjMw-15" edge="1">
          <mxGeometry relative="1" as="geometry" />
        </mxCell>
        <mxCell id="W_Jf8CCHMTs3gdS7PjMw-47" style="edgeStyle=entityRelationEdgeStyle;rounded=0;orthogonalLoop=1;jettySize=auto;html=1;exitX=1;exitY=0.3333333333333333;exitDx=0;exitDy=0;exitPerimeter=0;entryX=0;entryY=0.5;entryDx=0;entryDy=0;" parent="1" source="W_Jf8CCHMTs3gdS7PjMw-14" target="W_Jf8CCHMTs3gdS7PjMw-20" edge="1">
          <mxGeometry relative="1" as="geometry" />
        </mxCell>
        <mxCell id="W_Jf8CCHMTs3gdS7PjMw-48" style="edgeStyle=entityRelationEdgeStyle;rounded=0;orthogonalLoop=1;jettySize=auto;html=1;exitX=1;exitY=0.3333333333333333;exitDx=0;exitDy=0;exitPerimeter=0;entryX=0;entryY=0.5;entryDx=0;entryDy=0;" parent="1" source="W_Jf8CCHMTs3gdS7PjMw-14" target="W_Jf8CCHMTs3gdS7PjMw-21" edge="1">
          <mxGeometry relative="1" as="geometry" />
        </mxCell>
        <mxCell id="W_Jf8CCHMTs3gdS7PjMw-65" style="edgeStyle=entityRelationEdgeStyle;rounded=0;orthogonalLoop=1;jettySize=auto;html=1;exitX=1;exitY=0.3333333333333333;exitDx=0;exitDy=0;exitPerimeter=0;entryX=0;entryY=0.5;entryDx=0;entryDy=0;" parent="1" source="W_Jf8CCHMTs3gdS7PjMw-14" target="W_Jf8CCHMTs3gdS7PjMw-64" edge="1">
          <mxGeometry relative="1" as="geometry" />
        </mxCell>
        <mxCell id="W_Jf8CCHMTs3gdS7PjMw-66" style="edgeStyle=entityRelationEdgeStyle;rounded=0;orthogonalLoop=1;jettySize=auto;html=1;exitX=1;exitY=0.3333333333333333;exitDx=0;exitDy=0;exitPerimeter=0;" parent="1" source="W_Jf8CCHMTs3gdS7PjMw-14" target="W_Jf8CCHMTs3gdS7PjMw-24" edge="1">
          <mxGeometry relative="1" as="geometry" />
        </mxCell>
        <mxCell id="W_Jf8CCHMTs3gdS7PjMw-73" style="edgeStyle=entityRelationEdgeStyle;rounded=0;orthogonalLoop=1;jettySize=auto;html=1;exitX=1;exitY=0.3333333333333333;exitDx=0;exitDy=0;exitPerimeter=0;entryX=0;entryY=0.5;entryDx=0;entryDy=0;" parent="1" source="W_Jf8CCHMTs3gdS7PjMw-14" target="W_Jf8CCHMTs3gdS7PjMw-72" edge="1">
          <mxGeometry relative="1" as="geometry" />
        </mxCell>
        <mxCell id="wE4NPfpEVgGlsL6bgsoE-4" style="edgeStyle=entityRelationEdgeStyle;rounded=0;orthogonalLoop=1;jettySize=auto;html=1;exitX=1;exitY=0.3333333333333333;exitDx=0;exitDy=0;exitPerimeter=0;entryX=0;entryY=0.5;entryDx=0;entryDy=0;" edge="1" parent="1" source="W_Jf8CCHMTs3gdS7PjMw-14" target="W_Jf8CCHMTs3gdS7PjMw-18">
          <mxGeometry relative="1" as="geometry" />
        </mxCell>
        <mxCell id="W_Jf8CCHMTs3gdS7PjMw-14" value="Vendedor" style="shape=umlActor;verticalLabelPosition=bottom;verticalAlign=top;html=1;" parent="1" vertex="1">
          <mxGeometry x="150" y="510" width="30" height="60" as="geometry" />
        </mxCell>
        <mxCell id="W_Jf8CCHMTs3gdS7PjMw-15" value="Inicia sesion" style="ellipse;whiteSpace=wrap;html=1;" parent="1" vertex="1">
          <mxGeometry x="590" y="390" width="110" height="50" as="geometry" />
        </mxCell>
        <mxCell id="W_Jf8CCHMTs3gdS7PjMw-16" value="Realizar ventas" style="ellipse;whiteSpace=wrap;html=1;" parent="1" vertex="1">
          <mxGeometry x="310" y="520" width="110" height="50" as="geometry" />
        </mxCell>
        <mxCell id="W_Jf8CCHMTs3gdS7PjMw-18" value="Actualizar stock" style="ellipse;whiteSpace=wrap;html=1;" parent="1" vertex="1">
          <mxGeometry x="310" y="380" width="110" height="50" as="geometry" />
        </mxCell>
        <mxCell id="W_Jf8CCHMTs3gdS7PjMw-20" value="Generar facturas" style="ellipse;whiteSpace=wrap;html=1;" parent="1" vertex="1">
          <mxGeometry x="310" y="580" width="110" height="50" as="geometry" />
        </mxCell>
        <mxCell id="W_Jf8CCHMTs3gdS7PjMw-21" value="Ver detalles de cliente" style="ellipse;whiteSpace=wrap;html=1;" parent="1" vertex="1">
          <mxGeometry x="310" y="650" width="110" height="50" as="geometry" />
        </mxCell>
        <mxCell id="W_Jf8CCHMTs3gdS7PjMw-49" style="edgeStyle=entityRelationEdgeStyle;rounded=0;orthogonalLoop=1;jettySize=auto;html=1;exitX=0;exitY=0.3333333333333333;exitDx=0;exitDy=0;exitPerimeter=0;entryX=1;entryY=0.5;entryDx=0;entryDy=0;" parent="1" source="W_Jf8CCHMTs3gdS7PjMw-22" target="W_Jf8CCHMTs3gdS7PjMw-23" edge="1">
          <mxGeometry relative="1" as="geometry" />
        </mxCell>
        <mxCell id="W_Jf8CCHMTs3gdS7PjMw-50" style="edgeStyle=entityRelationEdgeStyle;rounded=0;orthogonalLoop=1;jettySize=auto;html=1;exitX=0;exitY=0.3333333333333333;exitDx=0;exitDy=0;exitPerimeter=0;" parent="1" source="W_Jf8CCHMTs3gdS7PjMw-22" target="W_Jf8CCHMTs3gdS7PjMw-24" edge="1">
          <mxGeometry relative="1" as="geometry" />
        </mxCell>
        <mxCell id="W_Jf8CCHMTs3gdS7PjMw-51" style="edgeStyle=entityRelationEdgeStyle;rounded=0;orthogonalLoop=1;jettySize=auto;html=1;exitX=0;exitY=0.3333333333333333;exitDx=0;exitDy=0;exitPerimeter=0;entryX=1;entryY=0.5;entryDx=0;entryDy=0;" parent="1" source="W_Jf8CCHMTs3gdS7PjMw-22" target="W_Jf8CCHMTs3gdS7PjMw-25" edge="1">
          <mxGeometry relative="1" as="geometry" />
        </mxCell>
        <mxCell id="W_Jf8CCHMTs3gdS7PjMw-59" style="edgeStyle=entityRelationEdgeStyle;rounded=0;orthogonalLoop=1;jettySize=auto;html=1;exitX=0;exitY=0.3333333333333333;exitDx=0;exitDy=0;exitPerimeter=0;entryX=1;entryY=0.5;entryDx=0;entryDy=0;" parent="1" source="W_Jf8CCHMTs3gdS7PjMw-22" target="W_Jf8CCHMTs3gdS7PjMw-11" edge="1">
          <mxGeometry relative="1" as="geometry" />
        </mxCell>
        <mxCell id="W_Jf8CCHMTs3gdS7PjMw-60" style="edgeStyle=entityRelationEdgeStyle;rounded=0;orthogonalLoop=1;jettySize=auto;html=1;exitX=0;exitY=0.3333333333333333;exitDx=0;exitDy=0;exitPerimeter=0;entryX=1;entryY=0.5;entryDx=0;entryDy=0;" parent="1" source="W_Jf8CCHMTs3gdS7PjMw-22" target="W_Jf8CCHMTs3gdS7PjMw-10" edge="1">
          <mxGeometry relative="1" as="geometry" />
        </mxCell>
        <mxCell id="W_Jf8CCHMTs3gdS7PjMw-62" style="edgeStyle=entityRelationEdgeStyle;rounded=0;orthogonalLoop=1;jettySize=auto;html=1;exitX=0;exitY=0.3333333333333333;exitDx=0;exitDy=0;exitPerimeter=0;entryX=1;entryY=0.5;entryDx=0;entryDy=0;" parent="1" source="W_Jf8CCHMTs3gdS7PjMw-22" target="W_Jf8CCHMTs3gdS7PjMw-15" edge="1">
          <mxGeometry relative="1" as="geometry" />
        </mxCell>
        <mxCell id="W_Jf8CCHMTs3gdS7PjMw-22" value="Inventario" style="shape=umlActor;verticalLabelPosition=bottom;verticalAlign=top;html=1;" parent="1" vertex="1">
          <mxGeometry x="1100" y="180" width="30" height="60" as="geometry" />
        </mxCell>
        <mxCell id="W_Jf8CCHMTs3gdS7PjMw-23" value="Actualizar stock" style="ellipse;whiteSpace=wrap;html=1;" parent="1" vertex="1">
          <mxGeometry x="860" y="180" width="110" height="50" as="geometry" />
        </mxCell>
        <mxCell id="W_Jf8CCHMTs3gdS7PjMw-24" value="Ver inventario" style="ellipse;whiteSpace=wrap;html=1;" parent="1" vertex="1">
          <mxGeometry x="590" y="450" width="110" height="50" as="geometry" />
        </mxCell>
        <mxCell id="W_Jf8CCHMTs3gdS7PjMw-25" value="generar reportes" style="ellipse;whiteSpace=wrap;html=1;" parent="1" vertex="1">
          <mxGeometry x="870" y="120" width="110" height="50" as="geometry" />
        </mxCell>
        <mxCell id="W_Jf8CCHMTs3gdS7PjMw-52" style="edgeStyle=entityRelationEdgeStyle;rounded=0;orthogonalLoop=1;jettySize=auto;html=1;exitX=0;exitY=0.3333333333333333;exitDx=0;exitDy=0;exitPerimeter=0;entryX=1;entryY=0.5;entryDx=0;entryDy=0;" parent="1" source="W_Jf8CCHMTs3gdS7PjMw-26" target="W_Jf8CCHMTs3gdS7PjMw-33" edge="1">
          <mxGeometry relative="1" as="geometry" />
        </mxCell>
        <mxCell id="W_Jf8CCHMTs3gdS7PjMw-53" style="edgeStyle=entityRelationEdgeStyle;rounded=0;orthogonalLoop=1;jettySize=auto;html=1;exitX=0;exitY=0.3333333333333333;exitDx=0;exitDy=0;exitPerimeter=0;" parent="1" source="W_Jf8CCHMTs3gdS7PjMw-26" target="W_Jf8CCHMTs3gdS7PjMw-29" edge="1">
          <mxGeometry relative="1" as="geometry" />
        </mxCell>
        <mxCell id="W_Jf8CCHMTs3gdS7PjMw-54" style="edgeStyle=entityRelationEdgeStyle;rounded=0;orthogonalLoop=1;jettySize=auto;html=1;exitX=0;exitY=0.3333333333333333;exitDx=0;exitDy=0;exitPerimeter=0;entryX=1;entryY=0.5;entryDx=0;entryDy=0;" parent="1" source="W_Jf8CCHMTs3gdS7PjMw-26" target="W_Jf8CCHMTs3gdS7PjMw-30" edge="1">
          <mxGeometry relative="1" as="geometry" />
        </mxCell>
        <mxCell id="W_Jf8CCHMTs3gdS7PjMw-55" style="edgeStyle=entityRelationEdgeStyle;rounded=0;orthogonalLoop=1;jettySize=auto;html=1;exitX=0;exitY=0.3333333333333333;exitDx=0;exitDy=0;exitPerimeter=0;entryX=1;entryY=0.5;entryDx=0;entryDy=0;" parent="1" source="W_Jf8CCHMTs3gdS7PjMw-26" target="W_Jf8CCHMTs3gdS7PjMw-31" edge="1">
          <mxGeometry relative="1" as="geometry" />
        </mxCell>
        <mxCell id="W_Jf8CCHMTs3gdS7PjMw-56" style="edgeStyle=entityRelationEdgeStyle;rounded=0;orthogonalLoop=1;jettySize=auto;html=1;exitX=0;exitY=0.3333333333333333;exitDx=0;exitDy=0;exitPerimeter=0;entryX=1;entryY=0.5;entryDx=0;entryDy=0;" parent="1" source="W_Jf8CCHMTs3gdS7PjMw-26" target="W_Jf8CCHMTs3gdS7PjMw-32" edge="1">
          <mxGeometry relative="1" as="geometry" />
        </mxCell>
        <mxCell id="W_Jf8CCHMTs3gdS7PjMw-57" style="edgeStyle=entityRelationEdgeStyle;rounded=0;orthogonalLoop=1;jettySize=auto;html=1;exitX=0;exitY=0.3333333333333333;exitDx=0;exitDy=0;exitPerimeter=0;entryX=1;entryY=0.5;entryDx=0;entryDy=0;" parent="1" source="W_Jf8CCHMTs3gdS7PjMw-26" target="W_Jf8CCHMTs3gdS7PjMw-34" edge="1">
          <mxGeometry relative="1" as="geometry" />
        </mxCell>
        <mxCell id="W_Jf8CCHMTs3gdS7PjMw-69" style="edgeStyle=entityRelationEdgeStyle;rounded=0;orthogonalLoop=1;jettySize=auto;html=1;exitX=0;exitY=0.3333333333333333;exitDx=0;exitDy=0;exitPerimeter=0;entryX=1;entryY=0.5;entryDx=0;entryDy=0;" parent="1" source="W_Jf8CCHMTs3gdS7PjMw-26" target="W_Jf8CCHMTs3gdS7PjMw-24" edge="1">
          <mxGeometry relative="1" as="geometry" />
        </mxCell>
        <mxCell id="wE4NPfpEVgGlsL6bgsoE-6" style="edgeStyle=entityRelationEdgeStyle;rounded=0;orthogonalLoop=1;jettySize=auto;html=1;exitX=0;exitY=0.3333333333333333;exitDx=0;exitDy=0;exitPerimeter=0;entryX=1;entryY=0.5;entryDx=0;entryDy=0;" edge="1" parent="1" source="W_Jf8CCHMTs3gdS7PjMw-26" target="W_Jf8CCHMTs3gdS7PjMw-67">
          <mxGeometry relative="1" as="geometry" />
        </mxCell>
        <mxCell id="W_Jf8CCHMTs3gdS7PjMw-26" value="Administrador" style="shape=umlActor;verticalLabelPosition=bottom;verticalAlign=top;html=1;" parent="1" vertex="1">
          <mxGeometry x="1120" y="510" width="30" height="60" as="geometry" />
        </mxCell>
        <mxCell id="W_Jf8CCHMTs3gdS7PjMw-29" value="crear cuentas de empleados" style="ellipse;whiteSpace=wrap;html=1;" parent="1" vertex="1">
          <mxGeometry x="870" y="800" width="110" height="50" as="geometry" />
        </mxCell>
        <mxCell id="W_Jf8CCHMTs3gdS7PjMw-30" value="Modificar permisos" style="ellipse;whiteSpace=wrap;html=1;" parent="1" vertex="1">
          <mxGeometry x="870" y="380" width="110" height="50" as="geometry" />
        </mxCell>
        <mxCell id="W_Jf8CCHMTs3gdS7PjMw-31" value="Modificar precios/informacion de llantas" style="ellipse;whiteSpace=wrap;html=1;" parent="1" vertex="1">
          <mxGeometry x="870" y="590" width="110" height="50" as="geometry" />
        </mxCell>
        <mxCell id="W_Jf8CCHMTs3gdS7PjMw-32" value="Ver reporte de inventario" style="ellipse;whiteSpace=wrap;html=1;" parent="1" vertex="1">
          <mxGeometry x="870" y="660" width="110" height="50" as="geometry" />
        </mxCell>
        <mxCell id="W_Jf8CCHMTs3gdS7PjMw-33" value="Revisar ventas" style="ellipse;whiteSpace=wrap;html=1;" parent="1" vertex="1">
          <mxGeometry x="870" y="440" width="110" height="50" as="geometry" />
        </mxCell>
        <mxCell id="W_Jf8CCHMTs3gdS7PjMw-34" value="Agregar llantas" style="ellipse;whiteSpace=wrap;html=1;" parent="1" vertex="1">
          <mxGeometry x="870" y="525" width="110" height="50" as="geometry" />
        </mxCell>
        <mxCell id="W_Jf8CCHMTs3gdS7PjMw-64" value="Realiza compras" style="ellipse;whiteSpace=wrap;html=1;" parent="1" vertex="1">
          <mxGeometry x="310" y="720" width="110" height="50" as="geometry" />
        </mxCell>
        <mxCell id="W_Jf8CCHMTs3gdS7PjMw-67" value="Eliminar llantas" style="ellipse;whiteSpace=wrap;html=1;" parent="1" vertex="1">
          <mxGeometry x="870" y="880" width="110" height="50" as="geometry" />
        </mxCell>
        <mxCell id="W_Jf8CCHMTs3gdS7PjMw-68" value="Comprar llantas" style="ellipse;whiteSpace=wrap;html=1;" parent="1" vertex="1">
          <mxGeometry x="870" y="730" width="110" height="50" as="geometry" />
        </mxCell>
        <mxCell id="W_Jf8CCHMTs3gdS7PjMw-72" value="Registrar a los clientes" style="ellipse;whiteSpace=wrap;html=1;" parent="1" vertex="1">
          <mxGeometry x="310" y="790" width="110" height="50" as="geometry" />
        </mxCell>
      </root>
    </mxGraphModel>
  </diagram>
</mxfile>
